<svg xmlns="http://www.w3.org/2000/svg" viewBox="0 0 333.88 109.38"><defs><style>.cls-1{fill:#262526;}</style></defs><g id="Layer_2" data-name="Layer 2"><g id="Layer_1-2" data-name="Layer 1"><path class="cls-1" d="M4.51,97.84H.08V96.69H10.27v1.15H5.84v11.45H4.51Z"/><path class="cls-1" d="M18.8,97.48a.89.89,0,0,1-.27-.65.86.86,0,0,1,.27-.63.92.92,0,0,1,.67-.27,1,1,0,0,1,.67.26.84.84,0,0,1,.27.62.9.9,0,0,1-.27.67,1,1,0,0,1-1.34,0Zm0,2.34H20.1v9.47H18.82Z"/><path class="cls-1" d="M45,100.77a4.17,4.17,0,0,1,1,3v5.49H44.7v-5.37a3.2,3.2,0,0,0-.71-2.25,2.59,2.59,0,0,0-2-.77,3,3,0,0,0-2.33.91,3.54,3.54,0,0,0-.84,2.51v5H37.54v-5.37a3.25,3.25,0,0,0-.71-2.25,2.63,2.63,0,0,0-2-.77,3,3,0,0,0-2.31.91,3.5,3.5,0,0,0-.85,2.51v5H30.36V99.82h1.22v1.73A3.5,3.5,0,0,1,33,100.21a4.44,4.44,0,0,1,2.07-.46,4,4,0,0,1,2.06.5,3.12,3.12,0,0,1,1.3,1.49,3.67,3.67,0,0,1,1.51-1.46,4.55,4.55,0,0,1,2.24-.53A3.79,3.79,0,0,1,45,100.77Z"/><path class="cls-1" d="M64.4,105H56.48a3.37,3.37,0,0,0,1.13,2.38,3.74,3.74,0,0,0,2.59.91,4.07,4.07,0,0,0,1.62-.31A3.55,3.55,0,0,0,63.1,107l.72.83A4,4,0,0,1,62.25,109a5.43,5.43,0,0,1-2.08.4,5.31,5.31,0,0,1-2.59-.62A4.52,4.52,0,0,1,55.83,107a4.93,4.93,0,0,1-.63-2.49,5.08,5.08,0,0,1,.6-2.48,4.4,4.4,0,0,1,1.66-1.71,4.59,4.59,0,0,1,2.36-.61,4.54,4.54,0,0,1,2.36.61,4.33,4.33,0,0,1,1.64,1.7,5.09,5.09,0,0,1,.59,2.49Zm-6.87-3.23A3.39,3.39,0,0,0,56.48,104h6.71a3.39,3.39,0,0,0-1-2.27,3.27,3.27,0,0,0-2.32-.88A3.23,3.23,0,0,0,57.53,101.72Z"/><path class="cls-1" d="M99,99.82l-3.58,9.47H94.24l-3-7.76-3,7.76h-1.2l-3.57-9.47h1.23l3,8,3-8h1.1l3,8,3-8Z"/><path class="cls-1" d="M113.8,100.67a3.6,3.6,0,0,1,1,2.75v5.87h-1.23v-1.48A2.9,2.9,0,0,1,112.3,109a4.39,4.39,0,0,1-2,.42,3.94,3.94,0,0,1-2.52-.76,2.61,2.61,0,0,1-.06-3.94,4.28,4.28,0,0,1,2.78-.74h3v-.58a2.42,2.42,0,0,0-.69-1.86,2.84,2.84,0,0,0-2-.64,5,5,0,0,0-1.72.3,4.35,4.35,0,0,0-1.43.82l-.57-1a5.14,5.14,0,0,1,1.73-.94,6.77,6.77,0,0,1,2.12-.33A4,4,0,0,1,113.8,100.67Zm-1.44,7.2a3,3,0,0,0,1.16-1.43v-1.55h-3c-1.62,0-2.43.57-2.43,1.7a1.54,1.54,0,0,0,.63,1.3,2.85,2.85,0,0,0,1.76.48A3.34,3.34,0,0,0,112.36,107.87Z"/><path class="cls-1" d="M125,97.48a.89.89,0,0,1-.27-.65.86.86,0,0,1,.27-.63.9.9,0,0,1,.66-.27.94.94,0,0,1,.67.26.84.84,0,0,1,.27.62.94.94,0,0,1-1.6.67Zm0,2.34h1.27v9.47H125Z"/><path class="cls-1" d="M141.49,108.71a2.49,2.49,0,0,1-.89.5,3.78,3.78,0,0,1-1.11.17,2.51,2.51,0,0,1-2.77-2.76V100.9H135V99.82h1.69V97.75H138v2.07h2.88v1.08H138v5.65a1.82,1.82,0,0,0,.42,1.29,1.62,1.62,0,0,0,1.21.44,2.22,2.22,0,0,0,.77-.13,1.75,1.75,0,0,0,.64-.36Z"/><path class="cls-1" d="M150.84,109a4.88,4.88,0,0,1-1.65-.83l.58-1a4.63,4.63,0,0,0,1.49.76,5.9,5.9,0,0,0,1.87.3,3.57,3.57,0,0,0,1.92-.4,1.29,1.29,0,0,0,.62-1.15,1,1,0,0,0-.34-.82,2.59,2.59,0,0,0-.86-.45,11.69,11.69,0,0,0-1.39-.29,16.58,16.58,0,0,1-1.85-.44,2.73,2.73,0,0,1-1.2-.77,2.13,2.13,0,0,1-.5-1.49,2.35,2.35,0,0,1,1-2,4.48,4.48,0,0,1,2.76-.75,7.19,7.19,0,0,1,1.83.24,4.86,4.86,0,0,1,1.52.64l-.56,1a4.78,4.78,0,0,0-2.79-.81,3.24,3.24,0,0,0-1.85.44,1.31,1.31,0,0,0-.62,1.13,1.11,1.11,0,0,0,.35.86,2.15,2.15,0,0,0,.88.48,14,14,0,0,0,1.44.32,14.41,14.41,0,0,1,1.81.43,2.58,2.58,0,0,1,1.17.74,2,2,0,0,1,.49,1.44,2.31,2.31,0,0,1-1,2,5,5,0,0,1-2.87.73A7,7,0,0,1,150.84,109Z"/><path class="cls-1" d="M179.3,97.37a1.84,1.84,0,0,0-.43,1.33v1.12h2.92v1.08h-2.88v8.39h-1.28V100.9h-1.69V99.82h1.69V98.65a2.76,2.76,0,0,1,.75-2.05,2.81,2.81,0,0,1,2.11-.76,3.7,3.7,0,0,1,1,.15,2.57,2.57,0,0,1,.84.44l-.43,1a2.11,2.11,0,0,0-1.4-.47A1.63,1.63,0,0,0,179.3,97.37Z"/><path class="cls-1" d="M191.62,108.76a4.54,4.54,0,0,1-1.73-1.72,5.22,5.22,0,0,1,0-5,4.44,4.44,0,0,1,1.73-1.71,5.29,5.29,0,0,1,4.93,0,4.48,4.48,0,0,1,1.72,1.71,5.29,5.29,0,0,1,0,5,4.58,4.58,0,0,1-1.72,1.72,5.21,5.21,0,0,1-4.93,0Zm4.27-1a3.14,3.14,0,0,0,1.25-1.3,4.07,4.07,0,0,0,.45-1.93,4,4,0,0,0-.45-1.92,3.16,3.16,0,0,0-1.25-1.31,3.79,3.79,0,0,0-3.62,0,3.31,3.31,0,0,0-1.26,1.31,4,4,0,0,0-.46,1.92,4.08,4.08,0,0,0,.46,1.93,3.29,3.29,0,0,0,1.26,1.3,3.79,3.79,0,0,0,3.62,0Z"/><path class="cls-1" d="M210.76,100.23a4.59,4.59,0,0,1,2.2-.48V101l-.3,0a3,3,0,0,0-2.34.92,3.62,3.62,0,0,0-.85,2.57v4.83h-1.28V99.82h1.23v1.85A3.17,3.17,0,0,1,210.76,100.23Z"/><path class="cls-1" d="M241.18,100.78a4.06,4.06,0,0,1,1,3v5.49H241v-5.37a3.16,3.16,0,0,0-.73-2.25,2.82,2.82,0,0,0-2.11-.77,3.21,3.21,0,0,0-2.42.91,3.43,3.43,0,0,0-.89,2.51v5h-1.28V99.82h1.22v1.74a3.61,3.61,0,0,1,1.45-1.34,4.76,4.76,0,0,1,2.15-.47A3.87,3.87,0,0,1,241.18,100.78Z"/><path class="cls-1" d="M253.8,108.76a4.58,4.58,0,0,1-1.72-1.72,5.22,5.22,0,0,1,0-5,4.48,4.48,0,0,1,1.72-1.71,5.31,5.31,0,0,1,4.94,0,4.48,4.48,0,0,1,1.72,1.71,5.29,5.29,0,0,1,0,5,4.58,4.58,0,0,1-1.72,1.72,5.23,5.23,0,0,1-4.94,0Zm4.28-1a3.2,3.2,0,0,0,1.25-1.3,4.07,4.07,0,0,0,.45-1.93,4,4,0,0,0-.45-1.92,3.22,3.22,0,0,0-1.25-1.31,3.79,3.79,0,0,0-3.62,0,3.31,3.31,0,0,0-1.26,1.31,4,4,0,0,0-.46,1.92,4.08,4.08,0,0,0,.46,1.93,3.29,3.29,0,0,0,1.26,1.3,3.79,3.79,0,0,0,3.62,0Z"/><path class="cls-1" d="M296.4,100.77a4.13,4.13,0,0,1,1,3v5.49h-1.28v-5.37a3.25,3.25,0,0,0-.71-2.25,2.61,2.61,0,0,0-2-.77,3,3,0,0,0-2.32.91,3.55,3.55,0,0,0-.85,2.51v5H289v-5.37a3.25,3.25,0,0,0-.71-2.25,2.65,2.65,0,0,0-2-.77,3,3,0,0,0-2.31.91,3.51,3.51,0,0,0-.86,2.51v5h-1.28V99.82H283v1.73a3.41,3.41,0,0,1,1.4-1.34,4.44,4.44,0,0,1,2.07-.46,4,4,0,0,1,2.06.5,3.09,3.09,0,0,1,1.31,1.49,3.7,3.7,0,0,1,1.5-1.46,4.58,4.58,0,0,1,2.24-.53A3.78,3.78,0,0,1,296.4,100.77Z"/><path class="cls-1" d="M313.74,100.67a3.6,3.6,0,0,1,1,2.75v5.87h-1.22v-1.48a2.9,2.9,0,0,1-1.27,1.15,4.39,4.39,0,0,1-2,.42,3.94,3.94,0,0,1-2.52-.76,2.61,2.61,0,0,1-.06-3.94,4.28,4.28,0,0,1,2.78-.74h3v-.58a2.42,2.42,0,0,0-.69-1.86,2.84,2.84,0,0,0-2-.64,5,5,0,0,0-1.72.3,4.35,4.35,0,0,0-1.43.82l-.57-1a5.14,5.14,0,0,1,1.73-.94,6.77,6.77,0,0,1,2.12-.33A4,4,0,0,1,313.74,100.67Zm-1.44,7.2a3,3,0,0,0,1.16-1.43v-1.55h-3c-1.62,0-2.43.57-2.43,1.7a1.54,1.54,0,0,0,.63,1.3,2.83,2.83,0,0,0,1.76.48A3.34,3.34,0,0,0,312.3,107.87Z"/><path class="cls-1" d="M332.56,100.78a4.07,4.07,0,0,1,1.06,3v5.49h-1.28v-5.37a3.16,3.16,0,0,0-.74-2.25,2.79,2.79,0,0,0-2.11-.77,3.23,3.23,0,0,0-2.42.91,3.43,3.43,0,0,0-.89,2.51v5H324.9V99.82h1.23v1.74a3.61,3.61,0,0,1,1.45-1.34,4.7,4.7,0,0,1,2.15-.47A3.85,3.85,0,0,1,332.56,100.78Z"/><path class="cls-1" d="M35.29,48a13.53,13.53,0,0,1-5.16,10q-4.65,3.66-12.26,3.66-8.33,0-13.1-5.11T0,42.5V40.09a21.81,21.81,0,0,1,2.2-10,15.5,15.5,0,0,1,6.29-6.65A19,19,0,0,1,18,21.1q7.49,0,12.07,3.66A14.54,14.54,0,0,1,35.35,35H26.43q-.33-3.83-2.33-5.54T18,27.77c-3,0-5.2,1-6.68,2.91s-2.23,5-2.27,9v3Q9,49.08,11.16,52t6.71,3Q22,55,24,53.27A7.47,7.47,0,0,0,26.37,48Z"/><path class="cls-1" d="M76.38,61.08H67.46V44.18H50.06v16.9H41.15V21.65h8.91v16h17.4v-16h8.92Z"/><path class="cls-1" d="M100.19,46.65H93.08V61.08H84.16V21.65h16.09q7.66,0,11.83,3.11a10.34,10.34,0,0,1,4.16,8.8,11.39,11.39,0,0,1-1.91,6.74,13,13,0,0,1-5.82,4.29l9.37,16.11v.38H108.3Zm-7.11-6.58h7.2a7.82,7.82,0,0,0,5.2-1.56,5.32,5.32,0,0,0,1.84-4.3,5.64,5.64,0,0,0-1.74-4.38q-1.72-1.6-5.33-1.6H93.08Z"/><path class="cls-1" d="M252.66,61.08h-8.92L226.38,35.14V61.08h-8.92V21.65h8.92l17.39,26v-26h8.89Z"/><path class="cls-1" d="M296,42.26a22,22,0,0,1-2.26,10.21,16,16,0,0,1-6.46,6.77,20.69,20.69,0,0,1-19.25,0,16.2,16.2,0,0,1-6.54-6.73,21.37,21.37,0,0,1-2.35-10.06V40.53a22,22,0,0,1,2.3-10.26,16.31,16.31,0,0,1,6.51-6.8,20.71,20.71,0,0,1,19.24,0,16.31,16.31,0,0,1,6.51,6.8A21.94,21.94,0,0,1,296,40.5Zm-9-1.79c0-4.13-.81-7.28-2.43-9.42A9.13,9.13,0,0,0,270.64,31q-2.43,3.2-2.46,9.34v1.92q0,6,2.43,9.37a9,9,0,0,0,13.92.12q2.4-3.21,2.43-9.36Z"/><path class="cls-1" d="M324.93,50.74a4.06,4.06,0,0,0-1.78-3.54,24.51,24.51,0,0,0-6.43-2.6,48.41,48.41,0,0,1-7.34-2.69Q302,38.28,302,32.13a9,9,0,0,1,2-5.7,12.91,12.91,0,0,1,5.68-3.92A23.21,23.21,0,0,1,318,21.1a21.13,21.13,0,0,1,8.27,1.54A12.91,12.91,0,0,1,331.87,27a10.56,10.56,0,0,1,2,6.33H325a5.12,5.12,0,0,0-1.87-4.21,8.24,8.24,0,0,0-5.27-1.5,8.81,8.81,0,0,0-5.08,1.26,3.85,3.85,0,0,0-1.81,3.32,3.75,3.75,0,0,0,2.12,3.22,25.35,25.35,0,0,0,6.26,2.44q7.6,2.09,11.09,5.17a9.86,9.86,0,0,1,3.48,7.69,9.21,9.21,0,0,1-4.25,8q-4.26,2.92-11.45,2.92a24,24,0,0,1-9.1-1.67,14.19,14.19,0,0,1-6.25-4.56,11,11,0,0,1-2.16-6.72h8.95q0,6.52,8.56,6.53a9,9,0,0,0,5-1.18A3.75,3.75,0,0,0,324.93,50.74Z"/><path class="cls-1" d="M188,5.56a41.35,41.35,0,0,0-41.35,71.62A41.35,41.35,0,1,0,188,5.56ZM202.33,60.8l-1.79-1-.69,1.2,1.79,1a39.74,39.74,0,0,1-13.72,13.71l-1-1.79-1.19.69,1,1.79a40.41,40.41,0,0,1-18.12,5V76.65H166V81.4a39.8,39.8,0,0,1-18.08-5l1-1.79-1.19-.69-1,1.79A39.74,39.74,0,0,1,133,62l1.78-1-.69-1.2-1.78,1a40.47,40.47,0,0,1-5-18.13H132V40h-4.75a39.8,39.8,0,0,1,5-18.08l1.79,1,.69-1.2-1.79-1A39.61,39.61,0,0,1,146.68,7l1,1.81,1.19-.69-1-1.82a40,40,0,0,1,9.06-3.64A41,41,0,0,1,166,1.31V6.08h2.66V1.31a39.74,39.74,0,0,1,18.07,5l-1,1.79,1.19.69,1-1.79a39.62,39.62,0,0,1,13.7,13.72l-1.78,1,.69,1.19,1.78-1a40.47,40.47,0,0,1,5,18.13h-4.75v2.65h4.75A39.76,39.76,0,0,1,202.33,60.8Z"/><path class="cls-1" d="M195.15,26.1,168.4,41.54a.85.85,0,0,1-.12.37,1.09,1.09,0,0,1-2-.51L148.9,28.72l.39-.54.37-.51L167,40.34a1,1,0,0,1,.69,0l26.76-15.45Z"/></g></g></svg>